HIERARCHY
ROOT Hips
{
	OFFSET 0.000000 0.000000 0.000000
	CHANNELS 6 Xposition Yposition Zposition Xrotation Yrotation Zrotation
	JOINT Spine
	{
		OFFSET 0.000000 0.049001 0.073502
		CHANNELS 3 Xrotation Yrotation Zrotation
		JOINT Spine1
		{
			OFFSET 0.000000 0.017018 0.096514
			CHANNELS 3 Xrotation Yrotation Zrotation
			JOINT Spine2
			{
				OFFSET 0.000000 0.008542 0.097630
				CHANNELS 3 Xrotation Yrotation Zrotation
				JOINT Spine3
				{
					OFFSET 0.000000 0.000000 0.098003
					CHANNELS 3 Xrotation Yrotation Zrotation
					JOINT Neck
					{
						OFFSET 0.000000 -0.036751 0.257258
						CHANNELS 3 Xrotation Yrotation Zrotation
						JOINT Head
						{
							OFFSET 0.000000 -0.023400 0.132707
							CHANNELS 3 Xrotation Yrotation Zrotation
							End Site
							{
								OFFSET 0.000000 0.000000 0.000000
							}
						}
					}
					JOINT RightShoulder
					{
						OFFSET -0.030410 -0.050683 0.164214
						CHANNELS 3 Xrotation Yrotation Zrotation
						JOINT RightArm
						{
							OFFSET -0.151036 0.000000 0.000000
							CHANNELS 3 Xrotation Yrotation Zrotation
							JOINT RightForeArm
							{
								OFFSET -0.279942 0.000000 0.000000
								CHANNELS 3 Xrotation Yrotation Zrotation
								JOINT RightHand
								{
									OFFSET -0.265034 0.000000 0.000000
									CHANNELS 3 Xrotation Yrotation Zrotation
									JOINT RightHandEnd
									{
										OFFSET -0.071866 0.000000 0.000000
										CHANNELS 3 Xrotation Yrotation Zrotation
										End Site
										{
											OFFSET 0.000000 0.000000 0.000000
										}
									}
									JOINT RightHandThumb1
									{
										OFFSET -0.028746 -0.047911 -0.019164
										CHANNELS 3 Xrotation Yrotation Zrotation
										End Site
										{
											OFFSET 0.000000 0.000000 0.000000
										}
									}
								}
							}
						}
					}
					JOINT LeftShoulder
					{
						OFFSET 0.030410 -0.050683 0.164214
						CHANNELS 3 Xrotation Yrotation Zrotation
						JOINT LeftArm
						{
							OFFSET 0.151036 0.000000 0.000000
							CHANNELS 3 Xrotation Yrotation Zrotation
							JOINT LeftForeArm
							{
								OFFSET 0.279942 0.000000 0.000000
								CHANNELS 3 Xrotation Yrotation Zrotation
								JOINT LeftHand
								{
									OFFSET 0.265034 0.000000 0.000000
									CHANNELS 3 Xrotation Yrotation Zrotation
									JOINT LeftHandEnd
									{
										OFFSET 0.071866 0.000000 0.000000
										CHANNELS 3 Xrotation Yrotation Zrotation
										End Site
										{
											OFFSET 0.000000 0.000000 0.000000
										}
									}
									JOINT LeftHandThumb1
									{
										OFFSET 0.028746 -0.047911 -0.019164
										CHANNELS 3 Xrotation Yrotation Zrotation
										End Site
										{
											OFFSET 0.000000 0.000000 0.000000
										}
									}
								}
							}
						}
					}
				}
			}
		}
	}
	JOINT RightUpLeg
	{
		OFFSET -0.090216 0.000000 -0.026355
		CHANNELS 3 Xrotation Yrotation Zrotation
		JOINT RightLeg
		{
			OFFSET 0.000000 0.000000 -0.402871
			CHANNELS 3 Xrotation Yrotation Zrotation
			JOINT RightFoot
			{
				OFFSET 0.000000 0.000000 -0.414145
				CHANNELS 3 Xrotation Yrotation Zrotation
				JOINT RightToeBase
				{
					OFFSET 0.000000 -0.146359 -0.053270
					CHANNELS 3 Xrotation Yrotation Zrotation
					End Site
					{
						OFFSET 0.000000 0.000000 0.000000
					}
				}
			}
		}
	}
	JOINT LeftUpLeg
	{
		OFFSET 0.090216 0.000000 -0.026355
		CHANNELS 3 Xrotation Yrotation Zrotation
		JOINT LeftLeg
		{
			OFFSET 0.000000 0.000000 -0.402871
			CHANNELS 3 Xrotation Yrotation Zrotation
			JOINT LeftFoot
			{
				OFFSET 0.000000 0.000000 -0.414145
				CHANNELS 3 Xrotation Yrotation Zrotation
				JOINT LeftToeBase
				{
					OFFSET 0.000000 -0.146359 -0.053270
					CHANNELS 3 Xrotation Yrotation Zrotation
					End Site
					{
						OFFSET 0.000000 0.000000 0.000000
					}
				}
			}
		}
	}
}
MOTION
Frames: 8
Frame Time: 0.033333
-0.435841 -0.497563 0.918647 3.658700 -5.039300 93.462900 1.446700 3.168200 0.419600 -0.589600 0.382400 -0.002900 5.790600 0.220000 -1.732600 2.551400 0.057400 -0.680600 9.813500 -0.045100 2.577800 -0.364700 2.972700 5.895100 -0.131100 6.249900 -3.720000 -4.630100 -16.857500 8.157500 0.000000 0.000000 0.541200 -21.511200 10.272600 1.593700 0.000000 0.000000 0.000000 0.000000 0.000000 0.000000 -0.971300 -9.382300 3.395300 17.260200 7.053100 -15.955000 0.000000 0.000000 -0.968600 -18.196100 0.027100 -3.182500 0.000000 0.000000 0.000000 0.000000 0.000000 0.000000 6.440100 -0.113600 -34.533900 5.398700 0.000000 0.000000 -6.432800 0.496100 2.364800 -3.406300 0.000000 0.000000 3.413900 4.468200 29.490200 10.289700 0.000000 0.000000 -3.948900 -5.986800 -9.591400 -10.978200 0.000000 0.000000 
-0.436077 -0.497479 0.918647 3.666500 -5.054600 93.457300 1.481000 3.180800 0.416300 -0.584500 0.384700 0.001200 5.818300 0.237600 -1.702600 2.543300 0.061600 -0.678600 9.741300 -0.035100 2.567800 -0.060600 2.925100 5.875500 -0.133100 6.281400 -3.723300 -4.678300 -16.851000 8.199400 0.000000 0.000000 0.523200 -21.480900 10.307200 1.682500 0.000000 0.000000 0.000000 0.000000 0.000000 0.000000 -0.956200 -9.385500 3.418200 17.274800 7.007300 -15.990000 0.000000 0.000000 -0.967300 -18.188300 0.032700 -3.214100 0.000000 0.000000 0.000000 0.000000 0.000000 0.000000 6.432900 -0.095800 -34.506100 5.413900 0.000000 0.000000 -6.436500 0.512300 2.345800 -3.403500 0.000000 0.000000 3.414300 4.502000 29.348800 10.268800 0.000000 0.000000 -3.920000 -6.025100 -9.437600 -10.973400 0.000000 0.000000 
-0.436484 -0.497263 0.918660 3.685400 -5.054500 93.430000 1.508300 3.202200 0.410200 -0.580600 0.386800 0.004500 5.849200 0.271300 -1.645800 2.536400 0.062500 -0.674500 9.671300 -0.005600 2.575300 0.344600 2.856500 5.841600 -0.129600 6.326800 -3.719500 -4.724300 -16.835600 8.273200 0.000000 0.000000 0.535400 -21.484000 10.362300 1.845200 0.000000 0.000000 0.000000 0.000000 0.000000 0.000000 -0.941100 -9.405600 3.458200 17.255800 6.980800 -16.049700 0.000000 0.000000 -0.952400 -18.156000 -0.006400 -3.214100 0.000000 0.000000 0.000000 0.000000 0.000000 0.000000 6.377400 -0.043800 -34.431900 5.472500 0.000000 0.000000 -6.457800 0.553000 2.303400 -3.387100 0.000000 0.000000 3.396800 4.576200 29.124900 10.218000 0.000000 0.000000 -3.856600 -6.074500 -9.177300 -10.992100 0.000000 0.000000 
-0.436992 -0.496936 0.918675 3.703500 -5.013000 93.393900 1.494700 3.223100 0.397200 -0.585900 0.395300 0.007600 5.876000 0.295100 -1.592100 2.535300 0.056500 -0.670700 9.643800 0.032500 2.600000 0.643900 2.825900 5.795000 -0.115600 6.364000 -3.702900 -4.767100 -16.822800 8.348000 0.000000 0.000000 0.600000 -21.563300 10.435300 2.056600 0.000000 0.000000 0.000000 0.000000 0.000000 0.000000 -0.918600 -9.441800 3.508400 17.234500 6.991100 -16.094700 0.000000 0.000000 -0.942700 -18.115800 -0.045000 -3.226300 0.000000 0.000000 0.000000 0.000000 0.000000 0.000000 6.247700 0.034300 -34.342200 5.586900 0.000000 0.000000 -6.489300 0.600700 2.262400 -3.372500 0.000000 0.000000 3.341000 4.665300 28.889300 10.145500 0.000000 0.000000 -3.775300 -6.118300 -8.902000 -11.013100 0.000000 0.000000 
-0.437497 -0.496562 0.918690 3.708900 -4.978200 93.371500 1.490300 3.238000 0.381700 -0.592500 0.408000 0.009500 5.891200 0.289700 -1.562400 2.537200 0.049600 -0.663400 9.638000 0.066700 2.615000 0.804400 2.845900 5.739200 -0.084300 6.388300 -3.690900 -4.812900 -16.821300 8.404600 0.000000 0.000000 0.687400 -21.671600 10.510900 2.252800 0.000000 0.000000 0.000000 0.000000 0.000000 0.000000 -0.869500 -9.488200 3.548400 17.234400 7.023000 -16.091300 0.000000 0.000000 -0.958300 -18.098400 -0.005800 -3.256300 0.000000 0.000000 0.000000 0.000000 0.000000 0.000000 6.124200 0.104300 -34.287100 5.709100 0.000000 0.000000 -6.506200 0.622400 2.248900 -3.375200 0.000000 0.000000 3.303600 4.738600 28.701700 10.056100 0.000000 0.000000 -3.696500 -6.151700 -8.695300 -11.008600 0.000000 0.000000 
-0.438079 -0.496159 0.918700 3.708500 -4.936200 93.365600 1.490100 3.252400 0.364800 -0.595200 0.420800 0.011000 5.906700 0.268200 -1.546500 2.535600 0.043600 -0.649800 9.604400 0.099000 2.607500 0.925100 2.865900 5.689900 -0.050700 6.390500 -3.688500 -4.840800 -16.804800 8.447200 0.000000 0.000000 0.736400 -21.723300 10.547200 2.381900 0.000000 0.000000 0.000000 0.000000 0.000000 0.000000 -0.817900 -9.519500 3.579300 17.252600 7.040900 -16.060000 0.000000 0.000000 -0.976700 -18.102500 0.080500 -3.248300 0.000000 0.000000 0.000000 0.000000 0.000000 0.000000 5.992200 0.168800 -34.264900 5.827400 0.000000 0.000000 -6.519100 0.629800 2.243900 -3.373200 0.000000 0.000000 3.253500 4.805300 28.525800 9.967000 0.000000 0.000000 -3.618000 -6.185200 -8.515100 -10.986600 0.000000 0.000000 
-0.438744 -0.495711 0.918726 3.710900 -4.888800 93.355800 1.498100 3.262300 0.347200 -0.594400 0.431700 0.012400 5.921100 0.250800 -1.524000 2.529000 0.037100 -0.631000 9.539000 0.133400 2.587100 1.038800 2.855400 5.663100 -0.026300 6.392800 -3.686400 -4.827300 -16.789900 8.479900 0.000000 0.000000 0.714100 -21.688300 10.520900 2.438000 0.000000 0.000000 0.000000 0.000000 0.000000 0.000000 -0.805300 -9.527200 3.612500 17.303800 7.048100 -16.043100 0.000000 0.000000 -0.966000 -18.110000 0.109300 -3.191400 0.000000 0.000000 0.000000 0.000000 0.000000 0.000000 5.847400 0.239000 -34.224300 5.945500 0.000000 0.000000 -6.540000 0.640400 2.204000 -3.340300 0.000000 0.000000 3.195000 4.883600 28.345600 9.870400 0.000000 0.000000 -3.534800 -6.225900 -8.324700 -10.971700 0.000000 0.000000 
-0.439458 -0.495196 0.918766 3.717000 -4.834800 93.335600 1.506300 3.263700 0.328700 -0.590900 0.443000 0.011900 5.930800 0.232900 -1.493700 2.520600 0.027600 -0.607700 9.465700 0.168900 2.571800 1.095500 2.848200 5.645100 -0.001900 6.429500 -3.675900 -4.789200 -16.824900 8.488800 0.000000 0.000000 0.639900 -21.613000 10.455700 2.439000 0.000000 0.000000 0.000000 0.000000 0.000000 0.000000 -0.818700 -9.518600 3.638300 17.383100 7.082700 -16.031100 0.000000 0.000000 -0.937100 -18.150500 0.072600 -3.161500 0.000000 0.000000 0.000000 0.000000 0.000000 0.000000 5.686100 0.320900 -34.151500 6.072100 0.000000 0.000000 -6.563000 0.657500 2.130900 -3.292000 0.000000 0.000000 3.141400 4.980300 28.162600 9.744500 0.000000 0.000000 -3.441600 -6.273700 -8.123900 -10.965500 0.000000 0.000000 
